<svg width="35" height="35" viewBox="0 0 35 35" fill="none" xmlns="http://www.w3.org/2000/svg">
<path d="M17.5 0C7.85016 0 0 7.85033 0 17.4997C0 27.1494 7.85016 35 17.5 35C27.1492 35 35 27.1494 35 17.4997C35 7.85033 27.1492 0 17.5 0ZM22.446 11.0472C22.446 11.1301 22.4131 11.2095 22.3545 11.2681C22.2959 11.3267 22.2164 11.3596 22.1335 11.3596L20.1442 11.3609C18.8316 11.3609 18.5917 11.872 18.5917 12.8787V14.9671H22.0036C22.0932 14.9671 22.1789 15.0058 22.2379 15.0733C22.297 15.1408 22.3244 15.2304 22.3135 15.3195L21.8277 19.0791C21.8179 19.1544 21.7811 19.2236 21.7241 19.2737C21.667 19.3239 21.5937 19.3515 21.5177 19.3515H18.5917V28.6869C18.5917 28.7697 18.5588 28.8492 18.5002 28.9078C18.4416 28.9664 18.3621 28.9993 18.2792 28.9993H14.3974C14.3146 28.9993 14.2351 28.9664 14.1765 28.9078C14.1179 28.8492 14.085 28.7697 14.085 28.6869V19.3515H11.1496C11.0667 19.3515 10.9872 19.3186 10.9286 19.26C10.87 19.2014 10.8371 19.1219 10.8371 19.0391V15.2795C10.8371 15.1966 10.87 15.1172 10.9286 15.0586C10.9872 15 11.0667 14.9671 11.1496 14.9671H14.085V12.5066C14.085 9.24787 16.0571 7.22389 19.2325 7.22389C20.5976 7.22389 21.8039 7.32544 22.1745 7.37449C22.2496 7.38441 22.3185 7.42128 22.3685 7.47824C22.4184 7.5352 22.446 7.60836 22.446 7.68411V11.0472Z" fill="white"/>
</svg>
