<svg width="35" height="35" viewBox="0 0 35 35" fill="none" xmlns="http://www.w3.org/2000/svg">
<g clip-path="url(#clip0_78_1775)">
<path d="M24.6057 12.1241C24.4538 11.7308 24.2213 11.3736 23.923 11.0757C23.6247 10.7777 23.2674 10.5455 22.8739 10.3941C22.3322 10.1935 21.7599 10.0874 21.1823 10.0806C20.2216 10.0368 19.9336 10.0259 17.5 10.0259C15.0664 10.0259 14.7783 10.0368 13.8177 10.0806C13.2394 10.0872 12.6665 10.1932 12.1242 10.3941C11.7309 10.546 11.3738 10.7785 11.0758 11.0768C10.7778 11.3751 10.5457 11.7324 10.3942 12.1259C10.1936 12.6676 10.0875 13.2399 10.0807 13.8175C10.0369 14.7782 10.026 15.0662 10.026 17.4998C10.026 19.9334 10.0369 20.2215 10.0807 21.1821C10.0873 21.7604 10.1934 22.3333 10.3942 22.8756C10.5461 23.2689 10.7786 23.626 11.0769 23.924C11.3752 24.222 11.7325 24.4541 12.126 24.6056C12.6678 24.8062 13.24 24.9123 13.8177 24.9191C14.7783 24.9629 15.0664 24.9738 17.5 24.9738C19.9336 24.9738 20.2216 24.9629 21.1823 24.9191C21.7606 24.9125 22.3334 24.8064 22.8757 24.6056C23.269 24.4537 23.6262 24.2212 23.9241 23.9229C24.2221 23.6246 24.4542 23.2673 24.6057 22.8738C24.8063 22.332 24.9124 21.7598 24.9192 21.1821C24.963 20.2215 24.9739 19.9334 24.9739 17.4998C24.9739 15.0662 24.963 14.7782 24.9192 13.8175C24.9126 13.2392 24.8065 12.6664 24.6057 12.1241ZM17.5 22.1811C16.5741 22.1811 15.669 21.9065 14.8992 21.3922C14.1294 20.8778 13.5294 20.1467 13.175 19.2913C12.8207 18.4359 12.728 17.4946 12.9087 16.5866C13.0893 15.6785 13.5351 14.8444 14.1898 14.1897C14.8445 13.535 15.6786 13.0892 16.5867 12.9085C17.4948 12.7279 18.436 12.8206 19.2914 13.1749C20.1468 13.5292 20.8779 14.1292 21.3923 14.8991C21.9067 15.6689 22.1812 16.574 22.1812 17.4998C22.1812 18.7414 21.688 19.9321 20.8101 20.81C19.9322 21.6879 18.7415 22.1811 17.5 22.1811ZM22.3653 13.7282C22.149 13.7282 21.9375 13.6641 21.7577 13.5439C21.5778 13.4237 21.4376 13.2529 21.3548 13.053C21.272 12.8532 21.2504 12.6333 21.2926 12.4211C21.3348 12.2089 21.439 12.014 21.5919 11.8611C21.7449 11.7081 21.9398 11.6039 22.1519 11.5617C22.3641 11.5195 22.584 11.5412 22.7839 11.624C22.9837 11.7068 23.1546 11.847 23.2747 12.0268C23.3949 12.2067 23.4591 12.4181 23.4591 12.6345C23.4591 12.9246 23.3438 13.2028 23.1387 13.4079C22.9336 13.613 22.6554 13.7282 22.3653 13.7282Z" fill="white"/>
<path d="M17.5 20.539C19.1783 20.539 20.5388 19.1785 20.5388 17.5002C20.5388 15.8219 19.1783 14.4614 17.5 14.4614C15.8217 14.4614 14.4612 15.8219 14.4612 17.5002C14.4612 19.1785 15.8217 20.539 17.5 20.539Z" fill="white"/>
<path d="M17.5 0C14.0388 0 10.6554 1.02636 7.77753 2.94928C4.89967 4.87221 2.65665 7.60533 1.33212 10.803C0.00758244 14.0007 -0.338976 17.5194 0.336265 20.9141C1.01151 24.3087 2.67822 27.4269 5.12564 29.8744C7.57306 32.3218 10.6913 33.9885 14.0859 34.6637C17.4806 35.339 20.9993 34.9924 24.197 33.6679C27.3947 32.3434 30.1278 30.1003 32.0507 27.2225C33.9736 24.3446 35 20.9612 35 17.5C35 12.8587 33.1563 8.40752 29.8744 5.12563C26.5925 1.84374 22.1413 0 17.5 0ZM26.5599 21.2589C26.5443 22.0146 26.4006 22.7623 26.1352 23.47C25.9011 24.0754 25.5431 24.6252 25.0841 25.0841C24.6252 25.543 24.0754 25.901 23.4701 26.1352C22.7623 26.4006 22.0146 26.5443 21.2589 26.5599C20.2854 26.6036 19.9755 26.6146 17.5 26.6146C15.0245 26.6146 14.7146 26.6036 13.7412 26.5599C12.9854 26.5443 12.2377 26.4006 11.53 26.1352C10.9246 25.901 10.3748 25.543 9.9159 25.0841C9.45695 24.6252 9.09896 24.0754 8.86485 23.47C8.59936 22.7623 8.45575 22.0146 8.44011 21.2589C8.39636 20.2854 8.38542 19.9755 8.38542 17.5C8.38542 15.0245 8.39636 14.7146 8.44011 13.7411C8.45575 12.9854 8.59936 12.2377 8.86485 11.5299C9.09896 10.9246 9.45695 10.3748 9.9159 9.91589C10.3748 9.45695 10.9246 9.09895 11.53 8.86484C12.2377 8.59935 12.9854 8.45574 13.7412 8.4401C14.7146 8.39635 15.0245 8.38542 17.5 8.38542C19.9755 8.38542 20.2854 8.39635 21.2589 8.4401C22.0146 8.45574 22.7623 8.59935 23.4701 8.86484C24.0754 9.09895 24.6252 9.45695 25.0841 9.91589C25.5431 10.3748 25.9011 10.9246 26.1352 11.5299C26.4006 12.2377 26.5443 12.9854 26.5599 13.7411C26.6036 14.7146 26.6146 15.0245 26.6146 17.5C26.6146 19.9755 26.6036 20.2854 26.5599 21.2589Z" fill="white"/>
</g>
<defs>
<clipPath id="clip0_78_1775">
<rect width="35" height="35" fill="white"/>
</clipPath>
</defs>
</svg>
