<svg width="87" height="87" viewBox="0 0 87 87" fill="none" xmlns="http://www.w3.org/2000/svg">
<path d="M58.4431 72.1118C59.0256 70.8499 59.8567 70.3361 60.9227 70.5158C61.87 70.6755 62.6362 71.4201 62.7489 72.3398C62.8609 73.2541 62.5753 74.0278 61.7538 74.5265C60.9472 75.0162 60.1072 75.009 59.3222 74.4848C58.4983 73.9346 58.2149 73.1451 58.4431 72.1118Z" fill="white"/>
<path d="M43.5378 78.483C43.205 78.7671 42.9354 79.0177 42.6403 79.1812C42.0941 79.4839 41.8348 79.143 41.8486 78.3849C41.8704 77.188 41.928 75.9922 41.9437 74.7953C41.9578 73.7187 42.3603 73.6028 42.9598 73.9811C44.1412 74.7266 44.4082 76.6396 43.5378 78.483Z" fill="white"/>
<path d="M48.8172 51.1494C45.0208 53.2861 41.5394 53.1818 38.9082 50.9861C36.6988 49.1425 35.7222 45.5287 36.7528 42.539C37.6732 39.869 39.4532 37.9818 42.3184 37.5812C45.508 37.1353 48.4828 37.6645 50.3285 40.7152C51.9991 43.4765 52.042 46.3733 50.4756 49.2155C50.1042 49.8893 49.4819 50.4225 48.8172 51.1494Z" fill="white"/>
<path d="M40.3304 86.9594C36.0317 86.5498 31.959 85.7433 28.0339 84.2157C18.1133 80.3548 10.5731 73.757 5.3946 64.4838C1.23062 57.0272 -0.513775 48.9541 0.130122 40.4787C1.60116 21.1161 14.9144 5.43709 34.1558 1.04786C52.9753 -3.24514 72.8782 5.96008 81.8466 23.0346C91.115 40.6801 87.6829 61.7792 73.1506 75.3775C66.0787 81.9948 57.6649 85.877 47.9379 86.8014C45.4373 87.039 42.953 87.0229 40.3304 86.9594ZM60.7972 29.946C54.5041 22.6832 46.5881 20.1852 37.3957 22.6212C27.0076 25.374 19.5259 35.6521 21.5061 47.8223C23.3554 59.188 33.7947 68.0684 46.5444 66.2699C63.8921 63.8227 71.7159 43.8292 60.7972 29.946ZM64.3273 70.4126C63.9994 69.9822 63.7193 69.5024 63.3351 69.1301C61.793 67.636 59.272 67.4672 57.5968 68.7066C55.6644 70.1363 55.0864 72.4058 56.1272 74.4779C57.2119 76.6375 59.656 77.5848 61.8761 76.706C64.2561 75.764 65.2714 73.3186 64.3273 70.4126ZM45.7604 78.0914C46.7571 74.6347 44.5308 71.7545 41.0631 71.9816C40.4023 72.0249 40.0674 72.2444 40.0449 72.9463C39.9738 75.1681 39.8884 77.39 39.7684 79.6096C39.7156 80.5843 40.16 80.8565 41.0674 80.8628C43.116 80.8771 44.6628 80.0788 45.7604 78.0914ZM32.4327 78.9468C33.5247 78.9014 34.1898 78.2742 34.5522 77.3106C35.1742 75.6566 35.7684 73.9917 36.349 72.3225C36.5018 71.8831 36.8688 71.3186 36.1914 71.0267C35.4734 70.7172 35.2431 71.3073 35.0504 71.8334C34.505 73.3229 33.9759 74.8185 33.4292 76.3075C33.1892 76.9611 32.9135 77.7197 32.0212 77.3774C31.1482 77.0426 31.4172 76.2874 31.6522 75.6321C32.1722 74.1815 32.7337 72.745 33.2152 71.2819C33.3742 70.7991 33.8846 70.1423 32.9467 69.8231C32.0826 69.5289 32.0924 70.2968 31.9262 70.7386C31.3199 72.3504 30.7398 73.9734 30.1998 75.6086C29.6045 77.4114 30.3264 78.5676 32.4327 78.9468ZM48.0379 9.43066C48.7443 8.94737 49.5351 8.83268 50.3711 8.86208C50.9104 8.88104 51.2305 8.56992 51.2675 8.04394C51.3064 7.49259 50.8752 7.40114 50.4563 7.32988C50.1893 7.28446 49.9212 7.19105 49.6558 7.19872C47.5062 7.2608 45.5926 8.99388 45.2623 11.1568C44.9518 13.1892 46.3032 15.3739 48.3315 16.066C48.8771 16.2521 49.5478 16.5215 49.8698 15.7746C50.2037 15.0001 49.5823 14.8127 49.0011 14.5693C46.6563 13.5873 46.2071 11.5366 48.0379 9.43066ZM37.8635 12.4468C37.0453 10.427 37.6537 9.04432 39.7406 8.32746C40.3736 8.11002 40.8792 7.87676 40.6304 7.11361C40.3916 6.38127 39.803 6.57216 39.2692 6.71481C37.0322 7.31258 35.6841 9.39116 35.9605 11.8119C36.1903 13.8237 38.3019 15.6423 40.4317 15.6406C41.0034 15.6402 41.7241 15.7522 41.7275 14.8615C41.7304 14.0732 41.1392 13.9392 40.4953 13.9378C39.4309 13.9353 38.5465 13.5813 37.8635 12.4468ZM25.2297 66.8996C25.8467 67.4141 25.5968 67.9246 25.2289 68.4418C24.4169 69.5834 23.5567 70.6958 22.8242 71.8867C22.4848 72.4384 21.3467 73.0374 22.3111 73.7641C23.2715 74.4878 23.566 73.292 23.9813 72.7616C24.7883 71.7312 25.5103 70.6341 26.2648 69.5628C26.6616 68.9993 27.0293 68.4056 27.8908 68.7057C28.3252 68.857 28.5633 68.5634 28.7527 68.235C29.0115 67.7862 28.6732 67.575 28.38 67.362C27.5162 66.7343 26.7047 66.0158 25.6819 65.6798C25.3247 66.0128 25.0068 66.2767 25.2297 66.8996ZM65.0318 65.206C65.6633 66.5329 66.8672 66.799 68.1688 66.9768C70.3143 67.27 70.5184 67.6459 69.7263 69.576C70.3199 70.485 70.874 70.2275 71.3793 69.4903C72.2475 68.2236 71.5997 66.3684 70.0793 65.8145C69.4002 65.567 68.6738 65.5209 67.9543 65.4331C67.1379 65.3335 66.2446 65.1072 66.4122 63.9767C66.5016 63.3738 66.3937 62.908 65.8134 62.8409C65.1025 62.7586 64.9719 63.4106 64.8905 63.9426C64.8372 64.2901 64.9226 64.6589 65.0318 65.206ZM20.0056 63.6631C20.315 62.9535 20.9267 63.0703 21.5169 63.0956C21.9206 63.1129 22.2365 62.9235 22.3281 62.5201C22.4143 62.1405 22.0977 61.9675 21.8346 61.7918C20.7957 61.0981 19.157 61.7038 18.6117 63.0454C18.3245 63.752 18.1895 64.5196 17.9691 65.2546C17.5867 66.5304 17.1964 66.7289 16.0283 66.1181C15.558 65.8722 15.2213 65.745 14.8833 66.2455C14.5284 66.771 14.8985 67.1004 15.2186 67.4085C16.5029 68.6442 18.7213 67.9371 19.3433 66.0812C19.5863 65.3564 19.7437 64.6029 20.0056 63.6631ZM51.9483 75.84C51.7167 74.6885 51.5019 73.5332 51.2453 72.3873C51.137 71.9038 51.0027 71.3785 50.2947 71.4918C49.5117 71.6172 49.7187 72.143 49.8222 72.6328C50.2891 74.8415 50.7568 77.0499 51.2187 79.2596C51.3143 79.717 51.376 80.1999 52.0278 80.1026C52.7199 79.9993 52.7392 79.5068 52.6323 78.9748C52.4366 78.0007 52.2248 77.0299 51.9483 75.84Z" fill="white"/>
</svg>
