<svg width="35" height="35" viewBox="0 0 35 35" fill="none" xmlns="http://www.w3.org/2000/svg">
<g clip-path="url(#clip0_78_1772)">
<path d="M17.5 0C7.85094 0 0 7.85094 0 17.5C0 27.1491 7.85094 35 17.5 35C27.1491 35 35 27.1491 35 17.5C35 7.85094 27.1491 0 17.5 0ZM25.5281 25.2613C25.4458 25.3789 25.3411 25.4791 25.22 25.5562C25.0988 25.6333 24.9637 25.6858 24.8222 25.7106C24.6808 25.7354 24.5359 25.732 24.3958 25.7007C24.2556 25.6694 24.1231 25.6108 24.0056 25.5281C19.9041 22.645 13.0813 22.4853 8.47437 23.5594C8.33433 23.5918 8.18927 23.5964 8.04746 23.5728C7.90566 23.5492 7.76989 23.4979 7.64791 23.4218C7.52593 23.3457 7.42013 23.2464 7.33655 23.1294C7.25297 23.0125 7.19324 22.8802 7.16078 22.7402C7.12832 22.6001 7.12376 22.455 7.14736 22.3132C7.17096 22.1714 7.22226 22.0357 7.29834 21.9137C7.37441 21.7917 7.47376 21.6859 7.59072 21.6023C7.70768 21.5187 7.83996 21.459 7.98 21.4266C13.0441 20.2541 20.6128 20.4684 25.2613 23.7388C25.4984 23.9054 25.6597 24.1593 25.7097 24.4448C25.7597 24.7302 25.6944 25.0239 25.5281 25.2613ZM27.6631 20.9934C27.5793 21.1101 27.4732 21.2091 27.3511 21.2847C27.229 21.3604 27.0931 21.4113 26.9513 21.4344C26.8096 21.4576 26.6646 21.4526 26.5247 21.4197C26.3849 21.3868 26.2529 21.3267 26.1362 21.2428C21.3784 17.8281 15.5334 16.9794 7.73281 18.5719C7.59205 18.6007 7.44698 18.6016 7.30589 18.5744C7.16479 18.5472 7.03044 18.4925 6.91049 18.4134C6.79054 18.3343 6.68736 18.2323 6.60682 18.1133C6.52628 17.9943 6.46996 17.8606 6.44109 17.7198C6.41222 17.5791 6.41136 17.434 6.43855 17.2929C6.46575 17.1518 6.52047 17.0175 6.59959 16.8975C6.6787 16.7776 6.78067 16.6744 6.89967 16.5938C7.01867 16.5133 7.15236 16.457 7.29313 16.4281C15.7303 14.7066 22.1222 15.6691 27.4116 19.4644C27.6472 19.6342 27.8059 19.8904 27.8531 20.177C27.9002 20.4635 27.8319 20.7571 27.6631 20.9934ZM29.82 15.2622C29.7393 15.3812 29.636 15.4831 29.5159 15.5622C29.3959 15.6412 29.2614 15.6958 29.1202 15.7228C28.979 15.7499 28.8338 15.7488 28.693 15.7197C28.5522 15.6905 28.4186 15.6339 28.2997 15.5531C22.2688 11.4603 13.1009 11.4406 7.16625 13.5406C7.03066 13.5885 6.88698 13.6091 6.7434 13.6014C6.59983 13.5937 6.45918 13.5578 6.32948 13.4958C6.19979 13.4337 6.08358 13.3467 5.98751 13.2397C5.89143 13.1328 5.81736 13.0079 5.76953 12.8723C5.7217 12.7368 5.70105 12.5931 5.70875 12.4495C5.71644 12.3059 5.75235 12.1653 5.8144 12.0356C5.87646 11.9059 5.96345 11.7897 6.07042 11.6936C6.17738 11.5975 6.30222 11.5235 6.43781 11.4756C12.8931 9.19406 22.8966 9.24219 29.5312 13.7419C29.7703 13.9059 29.9348 14.1577 29.9889 14.4425C30.043 14.7273 29.9823 15.022 29.82 15.2622Z" fill="white"/>
</g>
<defs>
<clipPath id="clip0_78_1772">
<rect width="35" height="35" fill="white"/>
</clipPath>
</defs>
</svg>
