<svg width="35" height="35" viewBox="0 0 35 35" fill="none" xmlns="http://www.w3.org/2000/svg">
<g clip-path="url(#clip0_78_1779)">
<path d="M17.5 0C7.83562 0 0 7.83562 0 17.5C0 27.1644 7.83562 35 17.5 35C27.1644 35 35 27.1644 35 17.5C35 7.83562 27.1644 0 17.5 0ZM26.7313 11.8748C26.6503 12.0105 26.2347 12.4862 25.7906 12.9205C25.0381 13.6675 24.9977 13.7484 24.9977 14.3741C24.9977 15.3377 24.5416 17.3491 24.0844 18.4483C23.2378 20.5133 21.4244 22.6461 19.6098 23.7202C17.057 25.2273 13.6577 25.6091 10.7953 24.7253C9.84156 24.4256 8.20203 23.6655 8.20203 23.5298C8.20203 23.4883 8.69859 23.4347 9.30453 23.4205C10.5702 23.3938 11.8087 23.0481 12.9052 22.4153L13.6303 21.98L12.7969 21.6956C11.6145 21.2877 10.5536 20.3503 10.2845 19.4677C10.2036 19.1822 10.2309 19.168 10.9823 19.168L11.7611 19.1548L11.1027 18.842C10.3228 18.4472 9.61078 17.7833 9.26188 17.103C9.00703 16.6141 8.68437 15.3781 8.77844 15.283C8.80578 15.2425 9.08797 15.3245 9.40953 15.4328C10.3359 15.773 10.4573 15.6909 9.92031 15.12C8.91297 14.0875 8.60344 12.553 9.08687 11.0994L9.31547 10.4475L10.2025 11.3302C12.017 13.1097 14.1531 14.1695 16.5977 14.4812L17.2692 14.5622L17.2288 13.8961C17.1084 12.1713 18.1694 10.5952 19.8494 9.98375C20.4673 9.76609 21.5163 9.73984 22.2009 9.92906C22.47 10.01 22.9797 10.2823 23.3428 10.5262L24.0013 10.9747L24.7264 10.7428C25.13 10.6214 25.667 10.4169 25.9088 10.2812C26.1373 10.1587 26.3386 10.0909 26.3386 10.1314C26.3386 10.3622 25.8409 11.1508 25.4253 11.585C24.8598 12.1964 25.0217 12.2511 26.1636 11.8431C26.8516 11.6167 26.8658 11.6167 26.7313 11.8748Z" fill="white"/>
</g>
<defs>
<clipPath id="clip0_78_1779">
<rect width="35" height="35" fill="white"/>
</clipPath>
</defs>
</svg>
