<svg width="35" height="35" viewBox="0 0 35 35" fill="none" xmlns="http://www.w3.org/2000/svg">
<path d="M17.4997 0C7.85046 0 0 7.85046 0 17.5C0 27.1495 7.85046 35 17.4997 35C27.1493 35 35 27.1495 35 17.5C35 7.85046 27.149 0 17.4997 0ZM17.4997 33.274C8.80207 33.274 1.72601 26.1976 1.72601 17.5C1.72601 8.80235 8.80207 1.72601 17.4997 1.72601C26.1974 1.72601 33.274 8.80235 33.274 17.5C33.274 26.1976 26.1974 33.274 17.4997 33.274Z" fill="white"/>
<path d="M24.4998 11.2916C24.4998 11.2916 22.5221 11.0039 17.38 11.0039C12.2198 11.0039 10.4038 11.2916 10.4038 11.2916C10.0997 11.2915 9.79849 11.3514 9.5175 11.4678C9.23651 11.5841 8.9812 11.7547 8.76613 11.9697C8.55107 12.1848 8.38046 12.4401 8.26407 12.721C8.14768 13.002 8.08777 13.3032 8.08777 13.6073V21.2486C8.08781 21.5527 8.14774 21.8539 8.26415 22.1348C8.38056 22.4157 8.55117 22.671 8.76623 22.886C8.98129 23.101 9.2366 23.2716 9.51757 23.3879C9.79854 23.5042 10.0997 23.5641 10.4038 23.5641C10.4038 23.5641 12.2198 23.8517 17.3858 23.8517C22.5218 23.8517 24.4995 23.5641 24.4995 23.5641C25.1137 23.5641 25.7027 23.3201 26.137 22.8859C26.5713 22.4517 26.8154 21.8628 26.8155 21.2486V13.6073C26.8155 12.9931 26.5716 12.4041 26.1373 11.9698C25.703 11.5356 25.114 11.2916 24.4998 11.2916ZM14.6167 21.0947V13.8023L20.9321 17.4482L14.6167 21.0947Z" fill="white"/>
</svg>
