<svg width="25" height="25" viewBox="0 0 25 25" fill="none" xmlns="http://www.w3.org/2000/svg">
<path d="M12.3136 24.8091C5.71365 24.8091 0.363647 19.4591 0.363647 12.8591C0.363647 6.25909 5.71365 0.909088 12.3136 0.909088C18.9136 0.909088 24.2636 6.25909 24.2636 12.8591C24.2636 19.4591 18.9136 24.8091 12.3136 24.8091ZM12.3136 2.20909C6.46365 2.20909 1.66365 7.00909 1.66365 12.8591C1.66365 18.7091 6.46365 23.5091 12.3136 23.5091C18.1636 23.5091 22.9636 18.7091 22.9636 12.8591C22.9636 6.95909 18.1636 2.20909 12.3136 2.20909Z" fill="white"/>
<path d="M8.76367 19.0091V6.65909L19.3637 12.8591L8.76367 19.0091ZM10.1637 9.10909V16.5591L16.5137 12.8591L10.1637 9.10909Z" fill="white"/>
</svg>
