<svg width="29" height="29" viewBox="0 0 29 29" fill="none" xmlns="http://www.w3.org/2000/svg">
<path d="M12.657 23.415C12.2399 23.4142 11.8356 23.271 11.511 23.009L6.85 19.28H3.84C3.35216 19.2795 2.88446 19.0855 2.53951 18.7405C2.19456 18.3955 2.00053 17.9278 2 17.44V11.56C2 10.545 2.825 9.72001 3.84 9.72001H6.85L11.511 5.99101C11.7808 5.77299 12.1071 5.63633 12.4517 5.59702C12.7963 5.5577 13.145 5.61736 13.457 5.76901C14.101 6.07901 14.5 6.71401 14.5 7.42801V21.573C14.5 22.287 14.101 22.922 13.457 23.231C13.201 23.354 12.927 23.415 12.657 23.415ZM4 17.28H7.2C7.427 17.28 7.647 17.357 7.825 17.499L12.5 21.239V7.76101L7.825 11.501C7.64755 11.6428 7.42715 11.72 7.2 11.72H4V17.28Z" fill="white"/>
<path d="M19.803 20.803C19.605 20.8034 19.4114 20.745 19.2466 20.6352C19.0819 20.5254 18.9535 20.3692 18.8778 20.1863C18.802 20.0034 18.7823 19.8021 18.8212 19.608C18.86 19.4139 18.9557 19.2357 19.096 19.096C20.306 17.887 21 16.211 21 14.5C21 12.789 20.306 11.113 19.096 9.90399C19.0031 9.81115 18.9295 9.70093 18.8792 9.57962C18.829 9.45831 18.8031 9.32829 18.8031 9.19699C18.8031 9.06569 18.829 8.93567 18.8792 8.81437C18.9295 8.69306 19.0031 8.58284 19.096 8.48999C19.1888 8.39715 19.299 8.3235 19.4203 8.27325C19.5416 8.22301 19.6717 8.19714 19.803 8.19714C19.9343 8.19714 20.0643 8.22301 20.1856 8.27325C20.3069 8.3235 20.4171 8.39715 20.51 8.48999C22.092 10.071 23 12.262 23 14.5C23 16.738 22.092 18.929 20.51 20.51C20.4174 20.6032 20.3072 20.677 20.1858 20.7273C20.0645 20.7776 19.9343 20.8033 19.803 20.803Z" fill="white"/>
<path d="M22.6319 23.632C22.434 23.6324 22.2403 23.574 22.0756 23.4642C21.9109 23.3544 21.7825 23.1982 21.7068 23.0153C21.631 22.8324 21.6113 22.6311 21.6502 22.437C21.689 22.2429 21.7846 22.0647 21.9249 21.925C23.8789 19.97 24.9999 17.264 24.9999 14.5C24.9999 11.736 23.8789 9.03 21.9249 7.075C21.8321 6.98215 21.7585 6.87193 21.7082 6.75062C21.658 6.62932 21.6321 6.4993 21.6321 6.368C21.6321 6.2367 21.658 6.10668 21.7082 5.98537C21.7585 5.86406 21.8321 5.75384 21.9249 5.661C22.0178 5.56815 22.128 5.4945 22.2493 5.44426C22.3706 5.39401 22.5006 5.36815 22.6319 5.36815C22.7632 5.36815 22.8933 5.39401 23.0146 5.44426C23.1359 5.4945 23.2461 5.56815 23.3389 5.661C25.6659 7.988 26.9999 11.209 26.9999 14.5C26.9999 17.791 25.6659 21.012 23.3389 23.339C23.2462 23.432 23.136 23.5058 23.0147 23.556C22.8933 23.6063 22.7633 23.6321 22.6319 23.632Z" fill="white"/>
<path d="M16.975 17.975C16.7773 17.975 16.584 17.9163 16.4195 17.8064C16.2551 17.6965 16.127 17.5403 16.0513 17.3576C15.9757 17.175 15.9559 16.9739 15.9944 16.78C16.033 16.586 16.1282 16.4078 16.268 16.268C16.733 15.803 17 15.158 17 14.5C17 13.842 16.733 13.197 16.268 12.732C16.0807 12.5442 15.9755 12.2897 15.9755 12.0245C15.9755 11.7592 16.0807 11.5048 16.268 11.317C16.4558 11.1297 16.7103 11.0245 16.9755 11.0245C17.2408 11.0245 17.4952 11.1297 17.683 11.317C18.52 12.156 19 13.316 19 14.5C19 15.684 18.52 16.844 17.683 17.682C17.59 17.7749 17.4796 17.8486 17.3582 17.8989C17.2367 17.9492 17.1065 17.975 16.975 17.975Z" fill="white"/>
</svg>
