<?xml version="1.0" standalone="no"?>
<!DOCTYPE svg PUBLIC "-//W3C//DTD SVG 20010904//EN"
 "http://www.w3.org/TR/2001/REC-SVG-20010904/DTD/svg10.dtd">
<svg version="1.0" xmlns="http://www.w3.org/2000/svg"
 width="500.000000pt" height="500.000000pt" viewBox="0 0 500.000000 500.000000"
 preserveAspectRatio="xMidYMid meet">

<g transform="translate(0.000000,500.000000) scale(0.100000,-0.100000)"
fill="#000000" stroke="none">
<path d="M2295 4084 c-300 -45 -595 -175 -815 -360 -302 -253 -491 -588 -555
-984 -19 -123 -19 -357 0 -480 42 -260 138 -493 290 -702 78 -108 227 -257
340 -341 173 -128 430 -240 650 -284 127 -25 463 -25 590 0 683 135 1197 684
1286 1372 18 140 6 405 -24 535 -63 267 -171 488 -338 687 -221 263 -533 451
-889 535 -68 16 -128 20 -295 23 -115 2 -223 1 -240 -1z m109 -249 c9 -34 3
-41 -37 -49 -63 -12 -97 -73 -73 -131 19 -44 52 -65 103 -65 43 0 43 0 43 -36
l0 -36 -59 4 c-176 13 -228 227 -77 319 17 10 45 19 62 19 26 0 33 -5 38 -25z
m364 -1 c19 -5 23 -12 20 -38 -3 -29 -5 -31 -47 -32 -53 -2 -85 -18 -100 -51
-28 -61 -1 -119 68 -146 34 -14 38 -19 33 -42 -6 -35 -22 -40 -68 -20 -75 31
-114 88 -114 165 0 106 108 190 208 164z m-100 -550 c284 -57 515 -266 614
-554 31 -91 32 -101 32 -250 0 -149 -1 -159 -32 -249 -121 -349 -425 -571
-782 -571 -357 0 -661 222 -782 571 -31 90 -32 100 -32 249 0 147 2 160 32
250 94 285 323 492 609 554 91 19 246 20 341 0z m-944 -1455 c25 -20 26 -22
10 -40 -11 -12 -28 -17 -52 -16 l-36 2 -17 -65 c-21 -79 -52 -110 -110 -110
-29 0 -47 7 -64 25 -31 30 -31 40 -3 59 19 14 23 13 45 -4 41 -32 51 -21 79
93 8 36 58 77 93 77 16 0 40 -10 55 -21z m1614 -35 c18 -12 20 -19 11 -35 -14
-28 3 -47 50 -54 82 -13 111 -25 126 -55 22 -43 19 -85 -9 -117 l-25 -28 -22
22 c-18 18 -20 25 -10 37 7 8 11 25 9 38 -3 20 -12 25 -63 34 -97 17 -125 40
-125 103 0 29 18 71 30 71 3 0 16 -7 28 -16z m-1420 -139 c54 -39 61 -48 52
-65 -14 -27 -29 -33 -45 -20 -8 6 -18 9 -23 6 -6 -3 -40 -49 -77 -101 -38 -53
-72 -98 -76 -101 -11 -6 -49 18 -49 32 0 6 24 45 54 86 94 131 91 126 72 147
-15 16 -15 22 -4 40 7 12 18 21 23 21 6 0 39 -20 73 -45z m1283 -67 c37 -21
71 -70 83 -121 15 -64 -36 -156 -101 -183 -151 -64 -301 99 -220 240 52 91
145 116 238 64z m-1083 -44 c12 -4 22 -11 22 -18 0 -6 -18 -61 -41 -123 -43
-116 -45 -147 -8 -141 17 2 29 25 64 121 24 65 45 120 47 123 3 2 17 0 31 -5
l26 -10 -45 -128 c-26 -75 -53 -135 -65 -145 -54 -45 -149 -5 -149 62 0 31 80
270 90 270 3 0 15 -3 28 -6z m672 -111 c7 -32 22 -104 35 -161 l22 -104 -24
-11 c-14 -6 -27 -7 -32 -1 -8 8 -71 289 -71 314 0 8 20 16 47 19 6 0 17 -24
23 -56z m-278 11 c15 -8 40 -31 55 -51 38 -50 40 -141 5 -191 -34 -46 -90 -72
-158 -72 l-57 0 6 160 c3 88 9 165 12 170 8 13 100 2 137 -16z"/>
<path d="M2399 2581 c-37 -36 -39 -42 -39 -98 0 -46 5 -67 21 -87 59 -75 179
-75 238 0 16 20 21 41 21 87 0 56 -2 62 -39 98 -37 37 -42 39 -101 39 -59 0
-64 -2 -101 -39z"/>
<path d="M3058 1533 c-56 -35 -66 -117 -19 -164 57 -57 158 -31 177 46 10 41
-8 87 -45 112 -40 27 -76 29 -113 6z"/>
<path d="M2436 1393 c-3 -4 -6 -48 -6 -100 0 -92 0 -93 24 -93 36 0 76 53 76
99 0 28 -7 44 -27 63 -31 27 -58 40 -67 31z"/>
</g>
</svg>
