<svg version="1.1" id="Layer_1" xmlns="http://www.w3.org/2000/svg" xmlns:xlink="http://www.w3.org/1999/xlink" x="0px" y="0px"
	 width="100%" viewBox="0 0 496 496" enable-background="new 0 0 496 496" xml:space="preserve">
<path fill="#000000" opacity="1.000000" stroke="none" 
	d="
M239.348419,410.078064 
	C223.582550,408.576416 208.645584,405.619751 194.250061,400.019806 
	C157.865265,385.865997 130.211243,361.679169 111.218643,327.684143 
	C95.946915,300.349091 89.549225,270.753632 91.910767,239.683701 
	C97.305893,168.702011 146.133179,111.223885 216.702362,95.133339 
	C285.724457,79.395546 358.719635,113.141129 391.612152,175.734741 
	C425.604675,240.421707 413.017059,317.769226 359.718628,367.619537 
	C333.781982,391.878265 302.923889,406.109741 267.249298,409.498596 
	C258.078217,410.369812 248.966690,410.310852 239.348419,410.078064 
M314.411804,201.071381 
	C291.331482,174.446762 262.298737,165.289291 228.585007,174.219269 
	C190.485931,184.310837 163.046371,221.989761 170.308807,266.604431 
	C177.091217,308.270386 215.378006,340.824921 262.138458,334.231750 
	C325.762543,325.260773 354.456909,251.966324 314.411804,201.071381 
M327.358704,349.418671 
	C326.156036,347.840942 325.128906,346.081909 323.719818,344.717316 
	C318.063812,339.240051 308.818115,338.621307 302.674011,343.164795 
	C295.586731,348.405670 293.467133,356.725739 297.284088,364.321716 
	C301.262329,372.238678 310.226288,375.711365 318.368622,372.489929 
	C327.097565,369.036438 330.821075,360.072052 327.358704,349.418671 
M259.263306,377.568726 
	C262.918793,364.896667 254.753479,354.337921 242.035400,355.170502 
	C239.611801,355.329132 238.383652,356.133820 238.301239,358.707001 
	C238.040359,366.852112 237.727325,374.997131 237.286987,383.134216 
	C237.093628,386.707214 238.723358,387.705017 242.051422,387.728271 
	C249.564545,387.780762 255.237518,384.854279 259.263306,377.568726 
M210.383026,380.704224 
	C214.387726,380.537964 216.827209,378.238800 218.156189,374.706360 
	C220.437469,368.642609 222.616653,362.539307 224.746078,356.420380 
	C225.306732,354.809296 226.652771,352.740112 224.168289,351.669861 
	C221.534897,350.535492 220.690094,352.698547 219.983521,354.627258 
	C217.983047,360.087708 216.042847,365.570251 214.037598,371.028931 
	C213.157394,373.424957 212.146286,376.205750 208.873764,374.951263 
	C205.671967,373.723816 206.658569,370.955170 207.520172,368.552826 
	C209.427368,363.235138 211.486877,357.968933 213.252914,352.605591 
	C213.835724,350.835663 215.707840,348.428009 212.268143,347.257660 
	C209.098694,346.179291 209.134888,348.994232 208.525375,350.613800 
	C206.301697,356.522644 204.174072,362.472137 202.193542,368.466827 
	C200.010086,375.075745 202.657791,379.314087 210.383026,380.704224 
M267.616028,125.863983 
	C270.206818,124.092285 273.107086,123.671852 276.173218,123.779610 
	C278.151062,123.849121 279.325043,122.708595 279.461060,120.780403 
	C279.603607,118.759186 278.022247,118.423927 276.485687,118.162697 
	C275.506409,117.996201 274.523132,117.653778 273.550018,117.681870 
	C265.666046,117.909462 258.647858,124.262794 257.436218,132.191895 
	C256.297699,139.642426 261.253967,147.651413 268.692993,150.188538 
	C270.694061,150.871002 273.153595,151.858353 274.334595,149.120392 
	C275.559265,146.281174 273.280212,145.593994 271.148682,144.701797 
	C262.548981,141.102066 260.901550,133.584335 267.616028,125.863983 
M230.300766,136.920807 
	C227.300018,129.516464 229.531204,124.447685 237.185089,121.819740 
	C239.506699,121.022636 241.360886,120.167542 240.448364,117.369881 
	C239.572693,114.685173 237.414108,115.384972 235.456177,115.907928 
	C227.251755,118.099281 222.307571,125.719193 223.321442,134.593246 
	C224.164047,141.968369 231.908432,148.635361 239.719849,148.629257 
	C241.816498,148.627625 244.459885,149.038101 244.472137,145.772903 
	C244.482986,142.883118 242.314728,142.392090 239.952988,142.386642 
	C236.049210,142.377625 232.805756,141.079941 230.300766,136.920807 
M183.965515,336.540253 
	C186.228165,338.426514 185.311783,340.297913 183.962570,342.193939 
	C180.984390,346.378998 177.829330,350.456940 175.142838,354.822540 
	C173.898087,356.845245 169.724319,359.040955 173.261292,361.705109 
	C176.783569,364.358154 177.863449,359.974396 179.386826,358.030029 
	C182.346344,354.252594 184.994522,350.230835 187.761688,346.303253 
	C189.216904,344.237823 190.565582,342.061218 193.724960,343.161316 
	C195.318436,343.716187 196.191483,342.639801 196.886124,341.435669 
	C197.835236,339.790466 196.594788,339.016418 195.519333,338.235352 
	C192.351089,335.934448 189.374924,333.300598 185.623657,332.068665 
	C184.313751,333.289459 183.147919,334.257050 183.965515,336.540253 
M329.942444,330.331818 
	C332.258514,335.196106 336.673920,336.171387 341.447540,336.823395 
	C349.316284,337.898193 350.065033,339.276215 347.159790,346.351776 
	C349.337158,349.684204 351.369232,348.740143 353.222260,346.037750 
	C356.406525,341.393890 354.030579,334.592987 348.454742,332.562347 
	C345.963806,331.655212 343.299866,331.486176 340.661011,331.164368 
	C337.666779,330.799194 334.390411,329.969666 335.005188,325.825165 
	C335.333038,323.615051 334.937347,321.907623 332.808990,321.661377 
	C330.201721,321.359772 329.722839,323.749969 329.424103,325.700073 
	C329.228912,326.974121 329.542084,328.326080 329.942444,330.331818 
M164.805496,324.675629 
	C165.940292,322.074280 168.183640,322.502533 170.348267,322.595245 
	C171.829117,322.658752 172.987717,321.964294 173.323563,320.485565 
	C173.639648,319.093842 172.478394,318.459747 171.513489,317.815704 
	C167.703201,315.272614 161.693176,317.493103 159.693344,322.411072 
	C158.639954,325.001556 158.144836,327.815399 157.336670,330.510101 
	C155.934082,335.186890 154.502701,335.914673 150.218384,333.675415 
	C148.493591,332.773956 147.258759,332.307556 146.019058,334.142456 
	C144.717606,336.068787 146.074799,337.276611 147.249054,338.405914 
	C151.959198,342.935822 160.095230,340.343628 162.376678,333.540009 
	C163.267654,330.882965 163.844864,328.120697 164.805496,324.675629 
M281.957886,369.315094 
	C281.108215,365.093842 280.320648,360.858704 279.379517,356.657959 
	C278.982330,354.885315 278.489594,352.959503 275.893066,353.375122 
	C273.021362,353.834747 273.780457,355.762115 274.160217,357.557922 
	C275.872589,365.654541 277.587982,373.750519 279.281799,381.851013 
	C279.632446,383.527985 279.858948,385.298248 282.249176,384.941620 
	C284.787506,384.562927 284.858643,382.757324 284.466553,380.806946 
	C283.748688,377.236206 282.971863,373.677277 281.957886,369.315094 
z"/>
<path fill="#000000" opacity="1.000000" stroke="none" 
	d="
M260.238464,264.434265 
	C252.993164,268.477936 246.349243,268.280518 241.327667,264.125397 
	C237.111267,260.636505 235.247437,253.797699 237.214325,248.139984 
	C238.970856,243.087341 242.367874,239.515930 247.835861,238.757919 
	C253.923019,237.914093 259.600159,238.915588 263.122620,244.688782 
	C266.310852,249.914185 266.392731,255.396072 263.403290,260.774628 
	C262.694580,262.049774 261.507019,263.058746 260.238464,264.434265 
z"/>
<path fill="#000000" opacity="1.000000" stroke="none" 
	d="
M301.600952,353.918091 
	C304.526581,347.477234 308.701111,344.854614 314.055145,345.771790 
	C318.813416,346.586914 322.661896,350.387512 323.227814,355.081696 
	C323.790436,359.748840 322.356018,363.697571 318.229889,366.243134 
	C314.178497,368.742645 309.959167,368.706146 306.016510,366.030518 
	C301.878204,363.222107 300.454865,359.192291 301.600952,353.918091 
z"/>
<path fill="#000000" opacity="1.000000" stroke="none" 
	d="
M251.848938,378.807861 
	C250.142242,379.867493 248.760193,380.802551 247.247055,381.412476 
	C244.446075,382.541534 243.116699,381.269867 243.187592,378.441742 
	C243.299500,373.976990 243.594879,369.516296 243.675201,365.051422 
	C243.747452,361.035583 245.811005,360.603088 248.885193,362.014313 
	C254.942734,364.795105 256.311584,371.931274 251.848938,378.807861 
z"/>
</svg>